# This file uses centimeters as units for non-parametric coordinates.

mtllib 1.mtl
g default
v -0.147737 1.939375 0.000902
v 0.147737 1.939375 0.000902
v -0.147737 5.104890 0.000902
v 0.147737 5.104890 0.000902
v -0.147737 5.104890 -0.000902
v 0.147737 5.104890 -0.000902
v -0.147737 1.939375 -0.000902
v 0.147737 1.939375 -0.000902
v 0.000000 5.104890 0.069613
v 0.000000 5.104890 -0.069613
v 0.000000 1.939375 -0.069613
v 0.000000 1.939375 0.069613
v -0.001915 5.324823 -0.000012
v 0.000000 5.324823 -0.000902
v -0.001915 5.324823 0.000012
v 0.000000 5.324823 0.000902
v 0.001915 5.324823 0.000012
v 0.001915 5.324823 -0.000012
v 0.000000 1.941059 0.069613
v -0.147737 1.941059 0.000902
v -0.147737 1.941059 -0.000902
v 0.000000 1.941059 -0.069613
v 0.147737 1.941059 -0.000902
v 0.147737 1.941059 0.000902
v -0.002269 1.941059 0.068557
v -0.002269 1.939375 0.068557
v -0.002269 1.939375 -0.068557
v -0.002269 1.941059 -0.068557
v -0.002269 5.104890 -0.068557
v -0.000029 5.324823 -0.000889
v -0.000029 5.324823 0.000889
v -0.002269 5.104890 0.068557
v -0.143749 1.941059 0.002756
v -0.143749 1.939375 0.002756
v -0.143749 1.939375 -0.002756
v -0.143749 1.941059 -0.002756
v -0.143749 5.104890 -0.002756
v -0.001863 5.324823 -0.000036
v -0.001863 5.324823 0.000036
v -0.143749 5.104890 0.002756
v 0.145936 1.941059 0.001739
v 0.145936 1.939375 0.001739
v 0.145936 1.939375 -0.001739
v 0.145936 1.941059 -0.001739
v 0.145936 5.104890 -0.001739
v 0.001891 5.324823 -0.000023
v 0.001891 5.324823 0.000023
v 0.145936 5.104890 0.001739
v -0.002269 5.101558 0.068557
v 0.000000 5.101558 0.069613
v 0.145936 5.101558 0.001739
v 0.147737 5.101558 0.000902
v 0.147737 5.101558 -0.000902
v 0.145936 5.101558 -0.001739
v 0.000000 5.101558 -0.069613
v -0.002269 5.101558 -0.068557
v -0.143749 5.101558 -0.002756
v -0.147737 5.101558 -0.000902
v -0.147737 5.101558 0.000902
v -0.143749 5.101558 0.002756
v -0.000152 5.312831 0.004578
v 0.000000 5.312831 0.004648
v 0.009745 5.312831 0.000116
v 0.009865 5.312831 0.000060
v 0.009865 5.312831 -0.000060
v 0.009745 5.312831 -0.000116
v 0.000000 5.312831 -0.004648
v -0.000152 5.312831 -0.004578
v -0.009599 5.312831 -0.000184
v -0.009865 5.312831 -0.000060
v -0.009865 5.312831 0.000060
v -0.009599 5.312831 0.000184
vt 0.216083 0.753125
vt 0.216083 0.746699
vt 0.216265 0.746699
vt 0.216265 0.753125
vt 0.216083 0.743714
vt 0.216265 0.743714
vt 0.558983 0.746699
vt 0.558983 0.753125
vt 0.216265 0.756110
vt 0.216083 0.756110
vt 0.216083 0.501816
vt 0.216265 0.501816
vt 0.558983 0.743714
vt 0.559345 0.746699
vt 0.559345 0.753125
vt 0.558983 0.756110
vt 0.216265 0.998008
vt 0.216083 0.998008
vt 0.558983 0.501816
vt 0.559345 0.743714
vt 0.559345 0.756110
vt 0.558983 0.998008
vt 0.559345 0.501816
vt 0.559345 0.998008
vt 0.001813 0.253302
vt 0.001813 0.246875
vt 0.001995 0.246875
vt 0.001995 0.253302
vt 0.001813 0.240265
vt 0.001995 0.240265
vt 0.344714 0.246875
vt 0.344714 0.253302
vt 0.001995 0.259911
vt 0.001813 0.259911
vt 0.001813 0.005754
vt 0.001995 0.005754
vt 0.344714 0.240265
vt 0.345075 0.246875
vt 0.345075 0.253302
vt 0.344714 0.259911
vt 0.001995 0.494422
vt 0.001813 0.494422
vt 0.001813 0.001992
vt 0.001995 0.001992
vt 0.344714 0.005754
vt 0.345075 0.240265
vt 0.345075 0.259911
vt 0.344714 0.494422
vt 0.001995 0.498184
vt 0.001813 0.498184
vt 0.344714 0.001992
vt 0.345075 0.005754
vt 0.345075 0.494422
vt 0.344714 0.498184
vt 0.345075 0.001992
vt 0.345075 0.498184
vt 0.525208 0.250168
vt 0.525208 0.250008
vt 0.525235 0.250046
vt 0.525235 0.250130
vt 0.523011 0.253304
vt 0.522977 0.253255
vt 0.522977 0.246921
vt 0.523011 0.246872
vt 0.534332 0.249674
vt 0.534472 0.249873
vt 0.534472 0.250303
vt 0.534332 0.250502
vt 0.523011 0.266655
vt 0.522835 0.266404
vt 0.520846 0.250215
vt 0.520846 0.249961
vt 0.522835 0.233772
vt 0.523011 0.233521
vt 0.692550 0.243890
vt 0.694642 0.246875
vt 0.694642 0.253301
vt 0.692550 0.256286
vt 0.523011 0.498184
vt 0.520374 0.494422
vt 0.511859 0.250744
vt 0.520786 0.250130
vt 0.520786 0.250046
vt 0.511859 0.249432
vt 0.520374 0.005754
vt 0.523011 0.001992
vt 0.356012 0.259911
vt 0.511550 0.250303
vt 0.511550 0.249873
vt 0.356012 0.240265
vt 0.351380 0.253301
vt 0.351380 0.246875
vt 0.733922 0.505578
vt 0.736559 0.501816
vt 0.736559 0.998008
vt 0.733922 0.994246
vt 0.906098 0.743714
vt 0.906098 0.756110
vt 0.569560 0.740089
vt 0.569560 0.759735
vt 0.908190 0.746698
vt 0.908190 0.753125
vt 0.564928 0.746698
vt 0.564928 0.753125
vn -0.421712 0.000000 0.906730
vn 0.411025 -0.000001 0.911624
vn 0.411007 0.000000 0.911632
vn -0.421712 0.000000 0.906730
vn 0.000000 1.000000 0.000000
vn 0.000000 1.000000 0.000000
vn 0.000000 1.000000 0.000000
vn 0.000000 1.000000 0.000000
vn -0.421712 0.000000 -0.906730
vn 0.411007 0.000000 -0.911632
vn 0.411016 0.000000 -0.911628
vn -0.421712 0.000000 -0.906730
vn 0.000000 -1.000000 0.000000
vn 0.000000 -1.000000 0.000000
vn 0.000000 -1.000000 0.000000
vn 0.000000 -1.000000 0.000000
vn 1.000000 0.000004 0.000000
vn 1.000000 0.000004 0.000000
vn 1.000000 0.000000 0.000000
vn 1.000000 -0.000000 0.000000
vn -1.000000 0.000000 0.000000
vn -1.000000 0.000000 0.000000
vn -1.000000 0.000000 0.000000
vn -1.000000 0.000000 0.000000
vn 0.421721 0.000000 -0.906726
vn 0.421712 0.000000 -0.906730
vn 0.421712 0.000000 -0.906730
vn 0.421726 0.000000 -0.906723
vn 0.000000 -1.000000 0.000000
vn 0.000000 -1.000000 0.000000
vn 0.000000 -1.000000 0.000000
vn 0.000000 -1.000000 0.000000
vn 0.421712 0.000000 0.906730
vn 0.421712 0.000000 0.906730
vn 0.421731 -0.000001 0.906721
vn 0.421717 0.000000 0.906727
vn -0.405747 0.272552 -0.872402
vn -0.405747 0.272553 -0.872402
vn -0.405756 0.272554 -0.872397
vn -0.405753 0.272550 -0.872400
vn -0.833446 0.552600 0.000000
vn -0.833446 0.552600 0.000000
vn -0.833449 0.552597 0.000000
vn -0.833449 0.552597 0.000000
vn -0.405747 0.272552 0.872402
vn -0.405728 0.272554 0.872410
vn -0.405504 0.272575 0.872507
vn -0.405749 0.272554 0.872400
vn 0.405747 0.272552 0.872402
vn 0.405795 0.272584 0.872369
vn 0.405799 0.272583 0.872368
vn 0.405746 0.272551 0.872402
vn 0.833446 0.552600 0.000000
vn 0.833446 0.552600 0.000000
vn 0.833449 0.552597 0.000000
vn 0.833449 0.552597 0.000000
vn 0.405750 0.272555 -0.872399
vn 0.405747 0.272553 -0.872402
vn 0.405753 0.272552 -0.872399
vn 0.405483 0.272373 -0.872580
vn -0.407707 0.255562 0.876620
vn -0.421712 -0.000000 0.906730
vn 0.411007 0.000000 0.911632
vn 0.397332 0.255804 0.881301
vn -1.000000 0.000000 0.000000
vn -1.000000 0.000000 0.000000
vn -0.840943 0.541124 0.000000
vn -0.840943 0.541124 0.000000
vn -0.407708 0.255563 -0.876620
vn 0.397333 0.255805 -0.881301
vn 0.411007 -0.000000 -0.911632
vn -0.421712 -0.000000 -0.906730
vn 0.421712 0.000000 -0.906730
vn 0.421712 0.000000 -0.906730
vn 0.407061 0.261305 -0.875226
vn 0.407104 0.260962 -0.875309
vn 1.000000 -0.000000 0.000000
vn 1.000000 -0.000000 0.000000
vn 0.840943 0.541124 0.000000
vn 0.840943 0.541124 0.000000
vn 0.407061 0.261306 0.875226
vn 0.421712 0.000000 0.906730
vn 0.421712 0.000000 0.906730
vn 0.407146 0.260989 0.875281
vn -0.421713 -0.000000 0.906730
vn -0.421712 0.000000 0.906730
vn 0.000000 -1.000000 0.000000
vn 0.000000 -1.000000 0.000000
vn -0.421712 0.000000 -0.906730
vn -0.421713 0.000000 -0.906730
vn -0.407016 0.261697 -0.875130
vn -0.421712 0.000000 -0.906730
vn -0.405747 0.272553 -0.872402
vn -0.405755 0.272553 -0.872398
vn 0.000000 1.000000 0.000000
vn 0.000000 1.000000 0.000000
vn 0.000000 1.000000 0.000000
vn 0.000000 1.000000 0.000000
vn -0.405747 0.272552 0.872402
vn -0.405751 0.272555 0.872399
vn -0.407016 0.261697 0.875130
vn -0.421712 0.000000 0.906730
vn -0.421718 -0.000002 0.906727
vn -0.421713 -0.000000 0.906730
vn 0.000000 -1.000000 0.000000
vn 0.000000 -1.000000 0.000000
vn -0.421713 0.000000 -0.906730
vn -0.421718 0.000000 -0.906727
vn -0.407099 0.260959 -0.875312
vn -0.421713 0.000000 -0.906730
vn -0.405745 0.272551 -0.872403
vn -0.405684 0.272508 -0.872445
vn 0.000000 1.000000 0.000000
vn 0.000000 1.000000 0.000000
vn -0.405765 0.272565 0.872389
vn -0.405816 0.272596 0.872356
vn -0.421713 0.000000 0.906730
vn -0.407118 0.260971 0.875300
vn 0.405747 0.272553 -0.872402
vn 0.405754 0.272553 -0.872398
vn 0.000000 1.000000 0.000000
vn 0.000000 1.000000 0.000000
vn 0.405746 0.272552 0.872402
vn 0.405746 0.272551 0.872403
s 1
g pCube1
usemtl initialShadingGroup
f 26/35/1 12/43/2 19/44/3 25/36/4
s 2
f 46/57/5 47/58/6 17/59/7 18/60/8
s 3
f 28/41/9 22/49/10 11/50/11 27/42/12
s 4
f 27/93/13 11/94/14 12/95/15 26/96/16
s 5
f 2/1/17 8/2/18 23/3/19 24/4/20
s 6
f 7/25/21 1/26/22 20/27/23 21/28/24
s 3
f 43/5/25 44/6/26 23/3/27 8/2/28
s 4
f 42/98/29 43/97/30 8/101/31 2/102/32
s 1
f 24/4/33 41/9/34 42/10/35 2/1/36
s 3
f 67/69/37 68/70/38 30/62/39 14/61/40
s 6
f 70/88/41 71/89/42 15/83/43 13/82/44
s 1
f 61/73/45 62/74/46 16/64/47 31/63/48
f 63/65/49 64/66/50 17/59/51 47/58/52
s 5
f 64/66/53 65/67/54 18/60/55 17/59/56
s 3
f 65/67/57 66/68/58 46/57/59 18/60/60
s 1
f 32/52/61 49/45/62 50/51/63 9/55/64
s 6
f 58/32/65 59/31/66 3/38/67 5/39/68
s 3
f 29/53/69 10/56/70 55/54/71 56/48/72
f 53/7/73 54/13/74 45/20/75 6/14/76
s 5
f 52/8/77 53/7/78 6/14/79 4/15/80
s 1
f 48/21/81 51/16/82 52/8/83 4/15/84
f 34/29/85 26/35/1 25/36/4 33/30/86
s 4
f 35/99/87 27/93/13 26/96/16 34/100/88
s 3
f 36/33/89 28/41/9 27/42/12 35/34/90
f 37/47/91 29/53/69 56/48/72 57/40/92
f 30/62/39 68/70/38 69/81/93 38/71/94
s 2
f 31/63/95 30/62/96 38/71/97 39/72/98
s 1
f 72/84/99 61/73/45 31/63/48 39/72/100
f 40/46/101 60/37/102 49/45/62 32/52/61
f 1/26/103 34/29/85 33/30/86 20/27/104
s 4
f 7/103/105 35/99/87 34/100/88 1/104/106
s 3
f 21/28/107 36/33/89 35/34/90 7/25/108
f 5/39/109 37/47/91 57/40/92 58/32/110
f 38/71/94 69/81/93 70/88/111 13/82/112
s 2
f 39/72/98 38/71/97 13/82/113 15/83/114
s 1
f 71/89/115 72/84/99 39/72/100 15/83/116
f 59/31/117 60/37/102 40/46/101 3/38/118
f 41/9/34 19/17/3 12/18/2 42/10/35
s 4
f 12/95/15 11/94/14 43/97/30 42/98/29
s 3
f 11/11/11 22/12/10 44/6/26 43/5/25
f 45/20/75 54/13/74 55/19/71 10/23/70
f 46/57/59 66/68/58 67/69/119 14/61/120
s 2
f 14/61/121 30/62/96 31/63/95 16/64/122 47/58/6 46/57/5
s 1
f 62/74/123 63/65/49 47/58/52 16/64/124
f 9/24/64 50/22/63 51/16/82 48/21/81
f 49/45/62 25/36/4 19/44/3 50/51/63
f 51/16/82 50/22/63 19/17/3 41/9/34
f 52/8/83 51/16/82 41/9/34 24/4/33
s 5
f 24/4/20 23/3/19 53/7/78 52/8/77
s 3
f 23/3/27 44/6/26 54/13/74 53/7/73
f 55/19/71 54/13/74 44/6/26 22/12/10
f 56/48/72 55/54/71 22/49/10 28/41/9
f 57/40/92 56/48/72 28/41/9 36/33/89
f 58/32/110 57/40/92 36/33/89 21/28/107
s 6
f 21/28/24 20/27/23 59/31/66 58/32/65
s 1
f 20/27/104 33/30/86 60/37/102 59/31/117
f 49/45/62 60/37/102 33/30/86 25/36/4
f 32/85/61 9/86/64 62/74/46 61/73/45
f 9/86/64 48/75/81 63/65/49 62/74/123
f 48/75/81 4/76/84 64/66/50 63/65/49
s 5
f 4/76/80 6/77/79 65/67/54 64/66/53
s 3
f 6/77/76 45/78/75 66/68/58 65/67/57
f 67/69/119 66/68/58 45/78/75 10/79/70
f 10/79/70 29/80/69 68/70/38 67/69/37
f 69/81/93 68/70/38 29/80/69 37/87/91
f 70/88/111 69/81/93 37/87/91 5/91/109
s 6
f 5/91/68 3/92/67 71/89/42 70/88/41
s 1
f 3/92/118 40/90/101 72/84/99 71/89/115
f 40/90/101 32/85/61 61/73/45 72/84/99
